<svg id="Layer_1" enable-background="new 0 0 128 128" height="512" viewBox="0 0 128 128" width="512" xmlns="http://www.w3.org/2000/svg"><path d="m111.623 66.264h-37.443c-1.318 0-2.588.206-3.782.583v-11.006c0-.517-.041-1.023-.102-1.524h4.318v9.764c0 .387.224.74.574.905.136.064.281.095.426.095.229 0 .455-.078.638-.23l12.723-10.534h18.55c6.935 0 12.577-5.642 12.577-12.577v-21.945c0-6.935-5.642-12.577-12.577-12.577h-37.444c-6.936 0-12.578 5.642-12.578 12.577v21.945c0 .517.041 1.023.102 1.524h-37.228c-6.935 0-12.577 5.642-12.577 12.577v21.945c0 6.936 5.642 12.577 12.577 12.577h19.488l11.939 12.264c.191.197.451.303.716.303.117 0 .235-.021.348-.062.371-.138.626-.481.65-.877l.708-11.627h3.592c1.318 0 2.588-.206 3.782-.583v11.006c0 6.936 5.642 12.577 12.577 12.577h3.533v10.419c0 .393.23.749.588.911.132.06.272.089.412.089.238 0 .474-.085.66-.249l12.716-11.17h19.533c6.935 0 12.577-5.642 12.577-12.577v-21.946c.004-6.936-5.638-12.577-12.573-12.577z" fill="#e6e7e8"/><path d="m107.622 63.264h-37.442c-1.707 0-3.323.379-4.782 1.043v9.479c0 4.687-2.79 8.713-6.795 10.535v12.465c0 6.394 5.183 11.577 11.577 11.577h4.533v11.419l13-11.419h19.91c6.394 0 11.577-5.183 11.577-11.577v-21.945c0-6.394-5.183-11.577-11.578-11.577z" fill="#d4fbff"/><path d="m103.596 86.211c2.406-5.536 2.231-10.909-1.003-14.144-3.237-3.235-8.615-3.408-14.155-.998-5.54-2.411-10.918-2.237-14.155.998-3.233 3.235-3.408 8.609-1.003 14.144-.506 1.158-.911 2.318-1.187 3.466-1.058 4.398-.271 8.189 2.215 10.675 1.732 1.732 4.145 2.648 6.978 2.648 1.26 0 2.602-.182 3.99-.539 1.049-.271 2.108-.64 3.162-1.097 1.054.457 2.112.826 3.162 1.097 1.388.357 2.73.539 3.99.539 2.833 0 5.246-.916 6.978-2.648 2.486-2.485 3.273-6.276 2.215-10.675-.275-1.148-.681-2.308-1.187-3.466zm-8.058-14.839c2.25 0 4.214.682 5.641 2.108 2.368 2.369 2.682 6.213 1.239 10.393-1.302-2.298-3.005-4.541-5.059-6.596-2.08-2.079-4.311-3.76-6.562-5.033 1.657-.571 3.262-.872 4.741-.872zm5.873 14.878c-1.24 2.529-3.065 5.1-5.443 7.478-2.318 2.319-4.906 4.164-7.53 5.425-2.624-1.261-5.212-3.107-7.53-5.425-2.377-2.377-4.202-4.948-5.443-7.478 1.262-2.617 3.119-5.211 5.466-7.559 2.386-2.385 4.968-4.227 7.507-5.467 2.538 1.24 5.12 3.082 7.507 5.467 2.348 2.348 4.205 4.942 5.466 7.559zm-25.713-12.769c1.427-1.427 3.391-2.108 5.641-2.108 1.48 0 3.084.301 4.741.872-2.251 1.274-4.482 2.954-6.562 5.033-2.054 2.055-3.757 4.298-5.059 6.596-1.443-4.18-1.128-8.025 1.239-10.393zm9.079 27.044c-3.793.979-7.062.405-9.055-1.587-1.975-1.975-2.573-5.098-1.685-8.793.122-.506.272-1.015.444-1.525 1.271 2.237 2.945 4.455 5.012 6.522 2.022 2.022 4.247 3.707 6.536 5.003-.417.141-.836.272-1.252.38zm16.378-1.587c-1.992 1.992-5.261 2.565-9.055 1.587-.416-.107-.834-.239-1.253-.38 2.289-1.297 4.514-2.982 6.536-5.003 2.067-2.067 3.741-4.285 5.012-6.522.172.511.323 1.02.444 1.525.889 3.695.291 6.818-1.684 8.793z" fill="#3a2c60"/><path d="m54.801 40.314c-.324-.027-.649-.049-.98-.049h-37.443c-6.394-.001-11.578 5.182-11.578 11.576v21.945c0 6.394 5.183 11.577 11.577 11.577h19.91l12.234 12.567.766-12.567h4.533c6.394 0 11.577-5.183 11.577-11.577v-21.945c0-.886-.109-1.745-.297-2.573-5.066-.426-9.198-4.111-10.299-8.954z" fill="#0089ef"/><path d="m44.448 62.32c0-5.113-4.104-9.267-9.197-9.348-5.142-.082-9.491 4.188-9.501 9.33-.005 2.91 1.32 5.509 3.4 7.226 1.208.998 2.068 2.353 2.523 3.853l.219.723h6.415l.253-.834c.438-1.445 1.272-2.75 2.443-3.704 2.102-1.713 3.445-4.322 3.445-7.246z" fill="#d4fbff"/><path d="m31.348 74.105v2.79c0 1.353.963 2.48 2.241 2.735v.284c0 .564.457 1.021 1.021 1.021h.977c.564 0 1.021-.457 1.021-1.021v-.284c1.278-.255 2.241-1.382 2.241-2.735v-2.79z" fill="#6dc9f7"/><ellipse cx="88.451" cy="86.209" fill="#6dc9f7" rx="6.576" ry="6.576" transform="matrix(.707 -.707 .707 .707 -35.053 87.794)"/><circle cx="75.455" cy="72.786" fill="#fa759e" r="3.025"/><path d="m102.463 70.017c-1.529 0-2.769 1.24-2.769 2.769s1.24 2.769 2.769 2.769 2.769-1.24 2.769-2.769c0-1.53-1.24-2.769-2.769-2.769z" fill="#0089ef"/><path d="m76.043 96.491c-1.671 0-3.025 1.354-3.025 3.025 0 1.67 1.354 3.025 3.025 3.025 1.67 0 3.025-1.354 3.025-3.025-.001-1.671-1.355-3.025-3.025-3.025z" fill="#0089ef"/><path d="m101.151 97.127c-1.529 0-2.769 1.24-2.769 2.769s1.24 2.769 2.769 2.769 2.769-1.24 2.769-2.769c0-1.53-1.239-2.769-2.769-2.769z" fill="#fa759e"/><path d="m103.524 4.218h-37.443c-6.394 0-11.577 5.183-11.577 11.577v21.945c0 6.394 5.183 11.577 11.577 11.577h5.533v10.764l13-10.764h18.91c6.394 0 11.577-5.183 11.577-11.577v-21.945c0-6.394-5.183-11.577-11.577-11.577z" fill="#fa759e"/><path d="m57.504 37.74v-21.945c0-6.394 5.183-11.577 11.577-11.577h-3c-6.394 0-11.577 5.183-11.577 11.577v21.945c0 6.394 5.183 11.577 11.577 11.577h3c-6.394 0-11.577-5.183-11.577-11.577z" fill="#fff"/><path d="m99.676 34.888-21.914-21.731-9.099-2.022 2.163 9.066 21.915 21.731c1.945 1.915 5.075 1.891 6.99-.054 1.915-1.945 1.891-5.075-.055-6.99z" fill="#6dc9f7"/><g fill="#3a2c60"><path d="m107.623 62.264h-37.443c-1.319 0-2.587.212-3.782.592v-11.015c0-.517-.041-1.024-.102-1.524h4.319v9.765c0 .387.224.74.574.905.136.064.281.095.426.095.229 0 .455-.078.638-.23l12.722-10.535h18.55c6.935 0 12.577-5.642 12.577-12.577v-21.945c0-6.935-5.642-12.577-12.577-12.577h-3.857c-.552 0-1 .448-1 1s.448 1 1 1h3.857c5.832 0 10.577 4.745 10.577 10.577v21.945c0 5.832-4.745 10.577-10.577 10.577h-18.91c-.233 0-.458.081-.638.23l-11.362 9.408v-8.638c0-.552-.448-1-1-1h-5.533c-5.833 0-10.578-4.745-10.578-10.577v-21.945c0-5.832 4.745-10.577 10.578-10.577h15.752c.552 0 1-.448 1-1s-.448-1-1-1h-15.753c-6.936 0-12.578 5.642-12.578 12.577v21.945c0 .517.041 1.023.102 1.524h-37.228c-6.935 0-12.577 5.642-12.577 12.577v21.945c0 6.936 5.642 12.577 12.577 12.577h19.488l11.939 12.264c.191.197.451.303.716.303.117 0 .235-.021.348-.062.371-.138.626-.481.65-.877l.708-11.627h3.592c1.318 0 2.588-.206 3.782-.583v11.006c0 6.936 5.642 12.577 12.577 12.577h3.533v10.418c0 .393.23.749.588.911.132.06.272.089.412.089.238 0 .474-.085.66-.249l12.716-11.169h19.533c6.935 0 12.577-5.642 12.577-12.577v-21.946c.004-6.936-5.638-12.577-12.573-12.577zm-58.336 22.099c-.529 0-.966.411-.998.939l-.628 10.31-10.657-10.946c-.188-.193-.446-.303-.716-.303h-19.91c-5.832 0-10.577-4.745-10.577-10.577v-21.945c0-5.833 4.745-10.578 10.577-10.578h37.442c.067 0 .131.011.198.013 1.365 4.645 5.34 8.17 10.224 8.89.091.547.155 1.102.155 1.674v21.945c0 5.832-4.745 10.577-10.577 10.577h-4.533zm68.913 12.423c0 5.832-4.745 10.577-10.577 10.577h-19.91c-.243 0-.478.089-.66.249l-11.339 9.96v-9.209c0-.553-.448-1-1-1h-4.534c-5.832 0-10.577-4.745-10.577-10.577v-11.842c4.031-2.098 6.795-6.307 6.795-11.157v-8.808c1.176-.456 2.448-.715 3.782-.715h37.443c5.832 0 10.577 4.745 10.577 10.577z"/><path d="m35.267 51.973c-2.779-.066-5.383 1.019-7.394 2.994-2.009 1.974-3.118 4.578-3.123 7.334-.006 3.104 1.366 6.02 3.763 8 .966.796 1.683 1.878 2.109 3.126-.167.179-.274.415-.274.679v2.79c0 1.533.929 2.895 2.295 3.482.21.892 1.012 1.558 1.967 1.558h.978c.955 0 1.757-.666 1.967-1.558 1.366-.588 2.295-1.949 2.295-3.482v-2.79c0-.268-.108-.508-.28-.688.402-1.233 1.109-2.297 2.064-3.076 2.423-1.975 3.813-4.899 3.813-8.021.001-5.617-4.567-10.259-10.18-10.348zm2.583 24.923c0 .85-.605 1.588-1.438 1.755-.467.094-.804.504-.804.98l-.021.305-.999-.021v-.283c0-.477-.336-.887-.804-.98-.833-.167-1.438-.905-1.438-1.755v-1.79h5.502v1.789zm2.521-8.105c-1.303 1.062-2.26 2.512-2.769 4.189l-.038.125h-1.465v-8.567h1.765c.552 0 1-.448 1-1s-.448-1-1-1h-5.228c-.552 0-1 .448-1 1s.448 1 1 1h1.462v8.567h-1.466l-.004-.014c-.525-1.733-1.508-3.232-2.843-4.334-1.935-1.597-3.041-3.949-3.037-6.453.004-2.216.9-4.316 2.525-5.911 1.625-1.596 3.758-2.455 5.959-2.421 4.529.072 8.213 3.817 8.213 8.348.003 2.519-1.119 4.877-3.074 6.471z"/><path d="m50.591 62.527h-2.933c-.552 0-1 .448-1 1s.448 1 1 1h2.933c.552 0 1-.448 1-1s-.447-1-1-1z"/><path d="m22.539 62.527h-2.933c-.552 0-1 .448-1 1s.448 1 1 1h2.933c.552 0 1-.448 1-1s-.448-1-1-1z"/><path d="m49.498 54.446c.517-.194.779-.771.584-1.288-.194-.518-.773-.778-1.288-.584l-2.745 1.031c-.517.194-.779.771-.584 1.288.15.401.532.649.936.649.117 0 .236-.021.352-.064z"/><path d="m24.148 53.606-2.745-1.031c-.515-.194-1.093.067-1.288.584-.194.517.067 1.093.584 1.288l2.745 1.031c.116.043.234.064.352.064.404 0 .786-.248.936-.649.195-.517-.067-1.093-.584-1.287z"/><path d="m35.099 50.584c.552 0 1-.448 1-1v-2.505c0-.552-.448-1-1-1s-1 .448-1 1v2.505c0 .552.448 1 1 1z"/><path d="m86.583 5.218h8.583c.552 0 1-.448 1-1s-.448-1-1-1h-8.583c-.552 0-1 .448-1 1s.448 1 1 1z"/><path d="m78.464 12.446s0-.001-.001-.001c-.002-.002-.005-.002-.007-.004-.083-.081-.182-.14-.287-.188-.032-.014-.063-.025-.095-.036s-.062-.029-.096-.036l-8.81-1.958-2.384-2.425c-.388-.395-1.021-.399-1.414-.012s-.399 1.02-.012 1.414l2.396 2.437 2.099 8.795c.008.034.026.064.038.096.011.032.022.061.036.092.05.106.111.207.195.29l.002.002 21.914 21.731c.119.117.256.202.382.307.016.019.022.043.04.061.061.061.136.096.207.138 1.05.784 2.289 1.199 3.541 1.199 1.538 0 3.074-.591 4.235-1.77 2.089-2.122 2.234-5.416.496-7.728-.037-.057-.062-.12-.112-.17-.019-.019-.044-.025-.064-.042-.128-.155-.238-.319-.384-.463l-21.913-21.728c-.001 0-.001 0-.002-.001zm-2.681 1.296-4.403 4.471-1.373-5.755zm-3.545 6.451 5.532-5.619 20.961 20.784-5.588 5.564zm26.781 20.983c-1.131 1.148-2.797 1.45-4.213.913l5.084-5.062c.52 1.393.238 3.022-.871 4.149z"/></g></svg>